<svg width="30" height="30" viewBox="0 0 30 30" fill="none" xmlns="http://www.w3.org/2000/svg">
<rect x="0.5" y="0.5" width="29" height="29" rx="14.5" fill="#7ECA9C" stroke="#7ECA9C"/>
<path d="M15 28C22.1814 28 28 22.1814 28 15C28 7.81858 22.1814 2 15 2C7.81858 2 2 7.81858 2 15C2 22.1814 7.81858 28 15 28ZM7.94858 14.7183L20.4827 9.88558C21.0645 9.67542 21.5726 10.0275 21.3841 10.9072L21.3852 10.9061L19.251 20.9605C19.0928 21.6733 18.6693 21.8467 18.0767 21.5108L14.8267 19.1156L13.2591 20.6257C13.0857 20.7991 12.9395 20.9453 12.6037 20.9453L12.8344 17.6379L18.8577 12.1963C19.1199 11.9656 18.7992 11.8356 18.4537 12.0653L11.0101 16.7517L7.80125 15.7507C7.10467 15.5297 7.0895 15.0542 7.94858 14.7183Z" fill="white"/>
</svg>
