<svg width="189" height="28" viewBox="0 0 189 28" fill="none" xmlns="http://www.w3.org/2000/svg">
<path d="M22.8778 5.26779L14.7704 0.592156C13.4014 -0.197412 11.7002 -0.197358 10.3311 0.592156L2.22386 5.26779C0.852107 6.05881 0 7.53404 0 9.11771V18.4617C0 20.0453 0.852107 21.5206 2.22381 22.3116L10.3311 26.9872C11.7005 27.7769 13.4015 27.7767 14.7704 26.9872L22.8777 22.3116C24.2495 21.5206 25.1016 20.0453 25.1016 18.4617V9.11771C25.1016 7.5341 24.2495 6.05887 22.8778 5.26779Z" fill="#7ECA9C"/>
<path d="M20.8355 12.9671L16.8343 9.58096C16.3801 9.19657 15.7003 9.25319 15.316 9.70749C14.9316 10.1618 14.9883 10.8416 15.4425 11.226L18.4718 13.7897L15.4425 16.3534C14.9883 16.7378 14.9317 17.4176 15.316 17.8719C15.7012 18.3272 16.3812 18.3819 16.8343 17.9984L20.8355 14.6122C21.3445 14.1814 21.3431 13.3967 20.8355 12.9671Z" fill="white"/>
<path d="M3.72797 14.6122L7.72919 17.9984C8.18333 18.3827 8.86318 18.3261 9.24751 17.8718C9.63185 17.4175 9.57518 16.7377 9.12098 16.3533L6.09166 13.7896L9.12098 11.2259C9.57518 10.8416 9.63179 10.1617 9.24751 9.7074C8.86226 9.25213 8.18226 9.19745 7.72919 9.58092L3.72797 12.9671C3.21893 13.3979 3.22039 14.1826 3.72797 14.6122Z" fill="white"/>
<path d="M59.5324 25.7731V4.93878L48.906 21.3385H48.2785L37.6521 4.93878V25.7731H36.8154V3.18167H37.5266L48.6132 20.2926L59.6579 3.18167H60.3691V25.7731H59.5324Z" fill="#40394A"/>
<path d="M63.5904 25.7731V3.22351H64.4272V25.7731H63.5904Z" fill="#40394A"/>
<path d="M67.6485 25.7731V3.18167H77.6055C78.9442 3.18167 80.1296 3.5303 81.1615 4.22757C82.1935 4.89694 83.0023 5.76156 83.588 6.8214C84.2016 7.85335 84.5084 8.94109 84.5084 10.0846C84.5084 11.2281 84.2435 12.3019 83.7135 13.306C83.2115 14.31 82.5003 15.1328 81.5799 15.7743C80.6595 16.4158 79.5857 16.7923 78.3585 16.9039L84.5084 25.7731H83.5044L77.3963 16.9875H68.4852V25.7731H67.6485ZM68.4852 16.1508H77.8147C79.014 16.1508 80.0459 15.858 80.9105 15.2723C81.7751 14.6866 82.4445 13.9335 82.9187 13.0131C83.3928 12.0648 83.6299 11.0887 83.6299 10.0846C83.6299 9.02476 83.3649 8.03464 82.835 7.11425C82.3051 6.19386 81.5799 5.45476 80.6595 4.89695C79.7391 4.31124 78.7072 4.01839 77.5637 4.01839H68.4852V16.1508Z" fill="#40394A"/>
<path d="M89.6123 14.5192C89.6123 13.0689 89.9052 11.6465 90.4909 10.252C91.0766 8.82953 91.9133 7.56051 93.001 6.44488C94.1166 5.30137 95.4693 4.39492 97.0591 3.72554C98.6489 3.05617 100.462 2.72148 102.498 2.72148C104.896 2.72148 106.988 3.19562 108.773 4.14391C110.558 5.09219 111.869 6.34727 112.706 7.90914L107.267 11.7999C106.821 10.7122 106.11 9.98699 105.133 9.62441C104.157 9.23395 103.237 9.03871 102.372 9.03871C101.117 9.03871 100.071 9.33156 99.2346 9.91727C98.4257 10.4751 97.8261 11.1863 97.4356 12.0509C97.0452 12.9155 96.8499 13.808 96.8499 14.7284C96.8499 15.7325 97.0731 16.6807 97.5193 17.5732C97.9656 18.4379 98.607 19.1491 99.4438 19.7069C100.28 20.2368 101.285 20.5018 102.456 20.5018C103.348 20.5018 104.255 20.3065 105.175 19.9161C106.124 19.4977 106.793 18.7865 107.183 17.7824L112.999 21.2966C112.497 22.4681 111.66 23.4721 110.488 24.3088C109.345 25.1177 108.048 25.7452 106.598 26.1915C105.147 26.6098 103.711 26.819 102.289 26.819C100.42 26.819 98.7047 26.4704 97.1428 25.7731C95.6088 25.0758 94.27 24.1415 93.1265 22.9701C92.0109 21.7987 91.1463 20.4878 90.5327 19.0375C89.9191 17.5593 89.6123 16.0532 89.6123 14.5192Z" fill="#7ECA9C"/>
<path d="M126.763 26.819C124.866 26.819 123.137 26.4843 121.575 25.8149C120.013 25.1177 118.661 24.1973 117.517 23.0538C116.402 21.9102 115.537 20.6133 114.923 19.163C114.31 17.7127 114.003 16.2206 114.003 14.6866C114.003 13.1247 114.324 11.6325 114.965 10.2101C115.607 8.7598 116.499 7.47684 117.643 6.36121C118.814 5.24558 120.181 4.36703 121.743 3.72554C123.305 3.05617 125.02 2.72148 126.888 2.72148C128.813 2.72148 130.556 3.07011 132.118 3.76738C133.68 4.43676 135.019 5.35715 136.134 6.52855C137.25 7.67207 138.101 8.96899 138.686 10.4193C139.3 11.8696 139.607 13.3478 139.607 14.8539C139.607 16.3879 139.286 17.88 138.644 19.3304C138.031 20.7528 137.152 22.0358 136.009 23.1793C134.865 24.2949 133.512 25.1874 131.951 25.8568C130.389 26.4983 128.66 26.819 126.763 26.819ZM121.241 14.7702C121.241 15.7185 121.45 16.6389 121.868 17.5314C122.287 18.396 122.9 19.1072 123.709 19.665C124.546 20.2229 125.592 20.5018 126.847 20.5018C128.13 20.5018 129.176 20.2229 129.984 19.665C130.793 19.0793 131.393 18.3402 131.783 17.4477C132.174 16.5552 132.369 15.6348 132.369 14.6866C132.369 13.7104 132.16 12.79 131.741 11.9254C131.323 11.0608 130.696 10.3635 129.859 9.83359C129.05 9.30367 128.032 9.03871 126.805 9.03871C125.55 9.03871 124.504 9.31762 123.667 9.87543C122.858 10.4332 122.245 11.1584 121.826 12.0509C121.436 12.9155 121.241 13.822 121.241 14.7702Z" fill="#7ECA9C"/>
<path d="M142.838 26.6098V2.84699H153.046C156.003 2.84699 158.471 3.37691 160.451 4.43676C162.459 5.4966 163.966 6.91902 164.97 8.70402C166.002 10.489 166.518 12.4832 166.518 14.6866C166.518 17.0852 165.96 19.177 164.844 20.962C163.729 22.747 162.153 24.1415 160.117 25.1456C158.109 26.1217 155.752 26.6098 153.046 26.6098H142.838ZM159.28 14.6866C159.28 12.9852 158.722 11.6186 157.607 10.5866C156.519 9.55469 154.999 9.03871 153.046 9.03871H149.951V20.4181H153.046C155.027 20.4181 156.561 19.8742 157.648 18.7865C158.736 17.6988 159.28 16.3321 159.28 14.6866Z" fill="#7ECA9C"/>
<path d="M188.797 20.4181V26.6098H169.803V2.84699H188.462V9.03871H176.915V11.6325H186.788V17.4059H176.915V20.4181H188.797Z" fill="#7ECA9C"/>
</svg>
