<svg width="26" height="28" viewBox="0 0 26 28" fill="none" xmlns="http://www.w3.org/2000/svg">
<path d="M22.8778 5.26779L14.7704 0.592156C13.4014 -0.197412 11.7002 -0.197358 10.3311 0.592156L2.22386 5.26779C0.852107 6.05881 0 7.53404 0 9.11771V18.4617C0 20.0453 0.852107 21.5206 2.22381 22.3116L10.3311 26.9872C11.7005 27.7769 13.4015 27.7767 14.7704 26.9872L22.8777 22.3116C24.2495 21.5206 25.1016 20.0453 25.1016 18.4617V9.11771C25.1016 7.5341 24.2495 6.05887 22.8778 5.26779Z" fill="#7ECA9C"/>
<path d="M20.8355 12.9671L16.8343 9.58096C16.3801 9.19657 15.7003 9.25319 15.316 9.70749C14.9316 10.1618 14.9883 10.8416 15.4425 11.226L18.4718 13.7897L15.4425 16.3534C14.9883 16.7378 14.9317 17.4176 15.316 17.8719C15.7012 18.3272 16.3812 18.3819 16.8343 17.9984L20.8355 14.6122C21.3445 14.1814 21.3431 13.3967 20.8355 12.9671Z" fill="white"/>
<path d="M3.72797 14.6122L7.72919 17.9984C8.18333 18.3827 8.86318 18.3261 9.24751 17.8718C9.63185 17.4175 9.57518 16.7377 9.12098 16.3533L6.09166 13.7896L9.12098 11.2259C9.57518 10.8416 9.63179 10.1617 9.24751 9.7074C8.86226 9.25213 8.18226 9.19745 7.72919 9.58092L3.72797 12.9671C3.21893 13.3979 3.22039 14.1826 3.72797 14.6122Z" fill="white"/>
</svg>
